<svg xmlns="http://www.w3.org/2000/svg" viewBox="0 0 1000 384.04"><defs><style>.cls-1{isolation:isolate;}.cls-2{fill:#266590;}.cls-3{fill:#fff;}.cls-4{fill:#f2f2f2;}.cls-5{fill:#313437;}.cls-6{opacity:0.2;mix-blend-mode:multiply;}.cls-7{fill:#fbab20;}.cls-8{fill:#f05364;}.cls-9{fill:#bfbfbf;}.cls-10{fill:#252729;}.cls-11{fill:#5a5d5f;opacity:0.3;}.cls-12{fill:none;stroke:#fff;stroke-miterlimit:10;stroke-width:3px;}</style></defs><title>banner2</title><g class="cls-1"><g id="Layer_2" data-name="Layer 2"><g id="_ÎÓÈ_1" data-name="—ÎÓÈ_1"><rect class="cls-2" width="1000" height="384.04"/><path class="cls-3" d="M528.37,156.31h0l-.16-.19c-1.91-2.23-3.24-5.69-4.05-10.6a42.82,42.82,0,0,1,1-17.76c3.12-11.85,10.53-19.63,20.86-21.93a26.7,26.7,0,0,1,26.59,8.59c10.86,12.09,13.06,31.83,5,45-1.77,2.87-8.11,12.11-15.5,10.24a8.44,8.44,0,0,1-4.29-2.55c-1.73-1.93-2.5-4.49-3.25-7s-1.37-4.57-2.76-6.11a6.72,6.72,0,0,0-4.19-2.1c-.23,0-.46-.06-.7-.08a13,13,0,0,0-7.48,2.21,17.1,17.1,0,0,0-2.27,1.82,9.5,9.5,0,0,1-3.69,2.43C531.67,158.74,530,158.08,528.37,156.31Zm41.51-39.46a23.21,23.21,0,0,0-23.12-7.48c-11.46,2.55-16.19,11.91-18.14,19.32a39.17,39.17,0,0,0-.9,16.25c.69,4.17,1.78,7.14,3.23,8.83l.11.13c.92,1,1.31.91,1.44.88a7.71,7.71,0,0,0,2.21-1.63,20,20,0,0,1,2.77-2.2,16.28,16.28,0,0,1,9.63-2.75,10.41,10.41,0,0,1,1,.11,10.27,10.27,0,0,1,6.31,3.26c1.93,2.14,2.75,4.86,3.54,7.49.66,2.2,1.29,4.27,2.48,5.6a4.75,4.75,0,0,0,2.49,1.46c4,1,8.7-4,11.53-8.63C581.64,145.86,579.57,127.63,569.88,116.85Z"/><circle class="cls-3" cx="566.9" cy="153.9" r="5.63" transform="translate(132.78 549.62) rotate(-57.54)"/><circle class="cls-3" cx="570.89" cy="135.17" r="5.63" transform="translate(150.47 544.36) rotate(-57.55)"/><circle class="cls-3" cx="561.28" cy="120.57" r="5.63" transform="translate(158.32 529.47) rotate(-57.54)"/><circle class="cls-3" cx="543.33" cy="119.85" r="5.63" transform="translate(150.59 513.97) rotate(-57.54)"/><circle class="cls-3" cx="536.9" cy="136.77" r="5.63" transform="translate(133.39 516.43) rotate(-57.55)"/><rect class="cls-3" x="536.92" y="121.25" width="8.71" height="14.41" transform="translate(105.21 473.89) rotate(-51.74)"/><path class="cls-2" d="M583.84,162.71a2.62,2.62,0,0,0,.37-.38,3.17,3.17,0,0,0,.38-3.08,10.51,10.51,0,0,0-1.71-3,36.29,36.29,0,0,0-6.29-6.19L551.45,130.2l.79-1-10.84-8.55a6.24,6.24,0,0,0-.26-2.12c-1.18-3.73-5.74-4.93-9.77-6-3.08-.81-6.57-1.73-7.35-3.56l-3.6-8.43,0,9.17a33.46,33.46,0,0,0,1.46,9.87c2,6.18,5.57,9.85,10.43,10.62a3.93,3.93,0,0,0,1.12,0L544.54,139l.79-1,25.13,19.83C572.8,159.62,580.67,165.43,583.84,162.71Zm-46.76-34.4a16.71,16.71,0,0,0,3.14-3.86l5.23,4.13-3.08,3.91Zm-11.57-9.88a27.92,27.92,0,0,1-1-4.25,32.66,32.66,0,0,0,5.89,2c3.17.84,5.73,1.61,6.76,2.86l-5.65,7.16C528.23,124.9,526.44,121.36,525.51,118.43Zm47.26,36.42L547.64,135l1.5-1.9,13.07,10.32L574.28,153a27.14,27.14,0,0,1,6.32,6.54A27.52,27.52,0,0,1,572.77,154.85Z"/><path class="cls-3" d="M547.28,129.28l-3.81,4.82,28.15,22.21c5.09,4,10.07,6.19,11.12,4.86s-2.22-5.67-7.31-9.69Z"/><path class="cls-3" d="M532.64,128.36c-8-1.28-10.3-12-10.32-18.66,2.61,6.11,19,3.39,17.08,12C539,123.77,535.21,128.77,532.64,128.36Z"/><rect class="cls-3" x="875.75" y="184.85" width="4.29" height="43.07" transform="translate(73.51 614.13) rotate(-40.11)"/><rect class="cls-3" x="855.76" y="192.39" width="3.99" height="21.95" transform="translate(70.73 600.47) rotate(-40.11)"/><rect class="cls-3" x="851.47" y="197.42" width="3.99" height="31.19" transform="translate(63.5 599.96) rotate(-40.11)"/><rect class="cls-3" x="842.65" y="204.09" width="3.99" height="26.26" transform="translate(58.72 595.3) rotate(-40.11)"/><rect class="cls-3" x="838.95" y="208.9" width="3.99" height="37.24" transform="translate(51.21 595.32) rotate(-40.11)"/><path class="cls-3" d="M882.55,227.2,877,231.85l4.65,5.52,5.52-4.65Zm-2.37,6.71a2.53,2.53,0,1,1,3.56.31A2.52,2.52,0,0,1,880.18,233.91Z"/><path class="cls-3" d="M875.28,233.32,869.77,238l4.65,5.52,5.52-4.65ZM872.92,240a2.52,2.52,0,1,1,3.56.3A2.52,2.52,0,0,1,872.92,240Z"/><path class="cls-3" d="M868.05,239.41l-5.52,4.65,4.65,5.52,5.52-4.65Zm-2.37,6.71a2.53,2.53,0,1,1,3.56.3A2.53,2.53,0,0,1,865.68,246.12Z"/><path class="cls-3" d="M860.82,245.51l-5.52,4.65,4.65,5.52,5.52-4.65Zm-2.37,6.71a2.53,2.53,0,1,1,3.56.3A2.53,2.53,0,0,1,858.45,252.22Z"/><path class="cls-3" d="M861.82,170.66,785,235.39,833.53,293l76.84-64.73ZM834.34,288l-44.25-52.52,71.17-60L905.51,228Z"/><path class="cls-3" d="M653.48,96l.37.38a20.71,20.71,0,0,0,9.37,5.37L662,106.27l.53.14c.34.07.82.19,1.4.29a25.19,25.19,0,0,0,4.33.41,25.89,25.89,0,0,0,4.34-.33l.8-.14.61-.13.53-.12-1.09-4.48a20.77,20.77,0,0,0,9.85-5.56l3.27,3.25.37-.39c.24-.25.58-.61,1-1.06a25.14,25.14,0,0,0,4.42-7.48c.1-.28.2-.54.28-.76l.19-.6.16-.52-4.43-1.29a21,21,0,0,0,.11-11.31l4.45-1.2-.14-.53c-.1-.33-.25-.8-.44-1.37a25.71,25.71,0,0,0-4.28-7.57c-.38-.45-.7-.83-.94-1.08l-.37-.39-3.33,3.19-.37-.38a20.74,20.74,0,0,0-9.37-5.37L675.08,57l-.53-.14c-.34-.07-.82-.19-1.41-.3a25.39,25.39,0,0,0-4.33-.41,25.8,25.8,0,0,0-4.34.33l-.8.14-.61.13-.53.12,1.09,4.48a20.78,20.78,0,0,0-9.85,5.56l-3.27-3.25-.38.39c-.24.25-.58.61-1,1.06a25.09,25.09,0,0,0-4.42,7.48c-.1.28-.2.54-.28.77l-.19.6-.16.52,4.43,1.29a21,21,0,0,0-.11,11.31L644,88.3l.14.52c.1.33.25.81.44,1.37a26,26,0,0,0,1.81,4,26.44,26.44,0,0,0,2.46,3.6c.39.45.71.83.94,1.09l.37.39Zm5.57-23.86a13.41,13.41,0,1,1,0,19A13.41,13.41,0,0,1,659.05,72.19Z"/><path class="cls-3" d="M600.79,76.74c-.07.12-.14.23-.2.34a15.46,15.46,0,0,0-1.86,7.85l-3.45.1s0,.15,0,.41,0,.63.09,1.07A18.63,18.63,0,0,0,596,89.7a19.23,19.23,0,0,0,1.15,3l.27.54.22.41.2.36,3-1.73a15.52,15.52,0,0,0,6.07,5.88l-1.63,3,.36.19c.23.12.56.29,1,.46a18.69,18.69,0,0,0,6.29,1.58l.61,0h.87v-3.45a15.63,15.63,0,0,0,8.12-2.32l1.81,2.93.35-.22.88-.61a19.14,19.14,0,0,0,4.51-4.67c.24-.37.44-.68.57-.9l.21-.35-3-1.71.2-.34A15.49,15.49,0,0,0,629.89,84l3.45-.1s0-.15,0-.41,0-.63-.09-1.07a18.76,18.76,0,0,0-.63-3.19,19.32,19.32,0,0,0-1.16-3l-.27-.54-.22-.41-.2-.35-3,1.73a15.52,15.52,0,0,0-6.08-5.87l1.64-3-.36-.19c-.23-.12-.56-.28-1-.46A18.56,18.56,0,0,0,618.94,66a19.11,19.11,0,0,0-3.22-.52l-.61,0h-.88l0,3.45a15.62,15.62,0,0,0-8.12,2.33l-1.81-2.94-.34.21-.89.61a19.53,19.53,0,0,0-2.46,2.14,19.8,19.8,0,0,0-2.06,2.53l-.58.91-.2.35Zm18.27-1.08a10,10,0,1,1-13.57,4.07A10,10,0,0,1,619.06,75.65Z"/><path class="cls-3" d="M623.88,114.71l-.36.25a17.11,17.11,0,0,0-5.57,7l-3.5-1.53-.18.42c-.1.27-.26.64-.42,1.11a21,21,0,0,0-.88,3.49,22.13,22.13,0,0,0-.28,3.58c0,.25,0,.47,0,.67l0,.52c0,.28,0,.45,0,.45l3.8-.32a17.15,17.15,0,0,0,3.29,8.75l-3.07,2.26.27.35c.18.23.42.55.75.92a20.56,20.56,0,0,0,2.57,2.52,21.23,21.23,0,0,0,3,2l.59.32.46.23.41.2,1.61-3.45a17.32,17.32,0,0,0,9.22,1.51l.42,3.79.45,0,1.17-.19a20.94,20.94,0,0,0,3.47-1,21.67,21.67,0,0,0,3.25-1.55l1-.63.37-.26L643.61,143l.36-.25a17.15,17.15,0,0,0,5.57-7l3.49,1.53.18-.41c.1-.27.26-.65.42-1.11a21.06,21.06,0,0,0,.88-3.49,21.82,21.82,0,0,0,.28-3.58c0-.24,0-.47,0-.67s0-.37,0-.52l0-.45-3.8.32a17.15,17.15,0,0,0-3.29-8.75l3.07-2.26-.27-.35c-.18-.23-.42-.55-.75-.92a20.76,20.76,0,0,0-5.55-4.56l-.58-.32-.47-.23-.4-.2-1.62,3.46a17.27,17.27,0,0,0-9.22-1.52l-.42-3.79L631,108l-1.17.19a21.64,21.64,0,0,0-3.47,1,22.38,22.38,0,0,0-3.25,1.55l-1,.63-.37.25Zm18.79,7.56a11.08,11.08,0,1,1-15.5-2.35A11.09,11.09,0,0,1,642.67,122.27Z"/><rect class="cls-3" x="707.17" y="105.16" width="10.26" height="12.99"/><rect class="cls-3" x="723.93" y="81.72" width="10.26" height="36.43"/><rect class="cls-3" x="740.54" y="91.14" width="10.26" height="27.01"/><rect class="cls-3" x="757.15" y="73.47" width="10.26" height="44.67"/><path class="cls-3" d="M750.56,69a25.36,25.36,0,1,0-3.35,38.65l5.74,5.74a6.34,6.34,0,0,0,1.67,5.61l17.61,17.61c2.53,2.53,6.87,2.34,9.64-.43s3-7.11.43-9.64l-17.61-17.61a6.33,6.33,0,0,0-5.6-1.67l-5.75-5.75A25.34,25.34,0,0,0,750.56,69ZM720.79,98.72a16.73,16.73,0,1,1,23.66,0A16.73,16.73,0,0,1,720.79,98.72Z"/><path class="cls-2" d="M776.65,140.29a8.13,8.13,0,0,1-5.8-2.35l-17.61-17.61a8.13,8.13,0,0,1-2.33-6.27l-4-4a27.31,27.31,0,1,1,8.91-8.91l4,4a8.21,8.21,0,0,1,6.26,2.33l17.61,17.61a8.14,8.14,0,0,1,2.34,6.2,9.52,9.52,0,0,1-9.38,9Zm-29.23-35.23,7.62,7.62-.17,1a4.37,4.37,0,0,0,1.13,3.89l17.6,17.61a4.25,4.25,0,0,0,3,1.21,5.61,5.61,0,0,0,5.47-5.26,4.27,4.27,0,0,0-1.2-3.26l-17.61-17.61a4.44,4.44,0,0,0-3.89-1.13l-1,.17-7.62-7.62.95-1.34a23.42,23.42,0,1,0-5.67,5.67Zm-14.8.51a18.68,18.68,0,1,1,13.21-5.47A18.57,18.57,0,0,1,732.63,105.57Zm0-33.47a14.78,14.78,0,1,0,10.45,4.33A14.68,14.68,0,0,0,732.63,72.11Z"/><path class="cls-3" d="M527.07,224.59l-3.22-1.4c-1.6-.51-5.35-1-12.78,1.29l-.19.06-.64.23-.17.06-.69.21-.35.17-.2,0a24.26,24.26,0,0,1-2.54.51l-.84.1-.18,0-.75.06-.24,0-.74,0h-1.39l-.6,0-.49,0-.31,0-.7-.07-.55-.07-.5-.08-.56-.1-.38-.07-.12,0-.46-.1-.62-.16-.48-.13-.59-.18-.42-.13-.69-.24-.3-.11c-.38-.15-.72-.29-1.06-.43A24,24,0,1,1,512.4,180c.34.15.68.31,1,.47l.27.13.58.3,1,.56.51.32.9.6.43.31.37.28.89.72.36.31.44.4.73.71.26.27.14.14.35.38.17.19c.21.23.37.41.52.61l.11.14.6.77-1.44,1.14,1.53-1,.43.59c.32.47.62.94.9,1.41h.06l.74,1.48.24.49c.16.33.28.6.39.87,3.43,7,6.34,9.48,7.8,10.31l3.21,1.39Zm-18.22-3.23.25-.08.61-.22.12,0c8.23-2.53,12.82-2.1,15.25-1.3l.08,0,5.9-13.56-.08,0c-2.24-1.23-5.68-4.29-9.41-12l-.11-.25c-.07-.16-.16-.37-.25-.57s-.26-.54-.38-.77l-.14-.27a20.24,20.24,0,0,0-1.17-1.92l-.37-.5-.65-.84-.41-.49-.59-.65-.26-.28-.55-.52-.42-.38-1.36-1.09-.36-.26-.79-.53-.35-.22-1.59-.87c-.31-.15-.59-.29-.87-.41a20.28,20.28,0,1,0-16.17,37.2l.87.35.29.1.57.2.39.12.49.15,1.71.4.49.09.41.06.45.06,2.11.14h.79l.69,0,.24,0,.62,0,.17,0,.71-.09a21.12,21.12,0,0,0,2.29-.48l.28-.08Z"/><rect class="cls-3" x="526.02" y="215.91" width="22.22" height="1.8" transform="translate(124.17 622.99) rotate(-66.51)"/><rect class="cls-3" x="522.97" y="214.58" width="22.22" height="1.8" transform="translate(123.56 619.4) rotate(-66.51)"/><path class="cls-3" d="M544.38,220c2.27-5.22,1.92-10.4-.78-11.57l-8.22,18.9C538.08,228.47,542.11,225.19,544.38,220Z"/><path class="cls-3" d="M477,214.42a1,1,0,0,1-.58.54l-10.18,3.63a1,1,0,0,1-.67-1.88l10.18-3.63a1,1,0,0,1,1.28.61A1,1,0,0,1,477,214.42Z"/><path class="cls-3" d="M472.89,204.1a1,1,0,0,1-.8.6L461.35,206a1,1,0,1,1-.23-2l10.74-1.26a1,1,0,0,1,1.11.88A1,1,0,0,1,472.89,204.1Z"/><path class="cls-3" d="M474.65,190.17h0a1,1,0,0,1-1.32.51l-9.88-4.38a1,1,0,0,1-.51-1.31h0a1,1,0,0,1,1.32-.51l9.88,4.37A1,1,0,0,1,474.65,190.17Z"/><path class="cls-3" d="M494,175.36a1,1,0,0,1-1.84,0l-4.29-9.92a1,1,0,0,1,1.83-.79l4.29,9.92A1,1,0,0,1,494,175.36Z"/><path class="cls-3" d="M483.63,179.39a1,1,0,0,1-1.72.19l-6.4-8.71a1,1,0,1,1,1.6-1.18l6.4,8.71A1,1,0,0,1,483.63,179.39Z"/><path class="cls-3" d="M823.32,98a31.48,31.48,0,1,0,31.48,31.48A31.48,31.48,0,0,0,823.32,98Zm0,59.28a27.8,27.8,0,1,1,27.8-27.8A27.81,27.81,0,0,1,823.32,157.25Z"/><rect class="cls-3" x="821.81" y="102.97" width="3.02" height="7.22"/><rect class="cls-3" x="821.81" y="148.8" width="3.02" height="7.22"/><rect class="cls-3" x="842.62" y="127.94" width="7.23" height="3.02"/><rect class="cls-3" x="796.8" y="127.94" width="7.22" height="3.02"/><rect class="cls-3" x="835.9" y="111.75" width="7.22" height="3.02" transform="translate(165.68 626.64) rotate(-44.99)"/><rect class="cls-3" x="803.49" y="144.16" width="7.23" height="3.02" transform="translate(133.18 613.07) rotate(-44.97)"/><rect class="cls-3" x="838.03" y="142.02" width="3.02" height="7.22" transform="translate(142.96 636.37) rotate(-45.01)"/><rect class="cls-3" x="805.62" y="109.61" width="3.02" height="7.23" transform="translate(156.34 603.89) rotate(-45)"/><path class="cls-3" d="M832.08,119.42l-7.39,7.39a3.33,3.33,0,0,0-.62-.21V112.48h-1.51V126.6a3.15,3.15,0,0,0-2.48,3,3.24,3.24,0,0,0,6.47,0,3,3,0,0,0-.39-1.46l7.34-7.34Z"/><path class="cls-4" d="M815.78,139.14H563.67a4.62,4.62,0,0,0-4.6,4.6V312.46H820.38V143.74A4.62,4.62,0,0,0,815.78,139.14Z"/><rect class="cls-5" x="568.4" y="146.83" width="242.65" height="138.25"/><polygon class="cls-4" points="739.53 336.79 739.53 343.23 639.91 343.23 639.91 336.79 645.98 318.47 646.64 316.47 647.98 312.45 731.47 312.45 732.8 316.47 733.46 318.47 739.53 336.79"/><polygon class="cls-6" points="733.46 318.47 645.98 318.47 646.64 316.47 647.98 312.45 731.47 312.45 732.8 316.47 733.46 318.47"/><rect class="cls-7" x="599.88" y="188.54" width="13.3" height="3.13"/><rect class="cls-3" x="599.88" y="196.2" width="13.3" height="3.13"/><rect class="cls-8" x="608.52" y="203.86" width="27.78" height="3.13"/><rect class="cls-3" x="640.39" y="203.86" width="16.26" height="3.13"/><rect class="cls-3" x="608.52" y="209.65" width="31.87" height="3.13"/><rect class="cls-8" x="608.52" y="222.56" width="43.7" height="3.13"/><rect class="cls-8" x="608.52" y="228.77" width="21.85" height="3.13"/><rect class="cls-3" x="633.85" y="228.77" width="6.54" height="3.13"/><rect class="cls-3" x="645.25" y="228.77" width="6.54" height="3.13"/><rect class="cls-3" x="608.52" y="236.39" width="15.93" height="3.13"/><rect class="cls-8" x="626.9" y="216.3" width="13.89" height="3.13"/><rect class="cls-3" x="645.28" y="216.3" width="22.46" height="3.13"/><rect class="cls-3" x="599.88" y="242.15" width="13.3" height="3.13"/><rect class="cls-7" x="599.88" y="247.83" width="13.3" height="3.13"/><rect class="cls-7" x="721.1" y="188.54" width="13.3" height="3.13"/><rect class="cls-3" x="721.1" y="196.2" width="13.3" height="3.13"/><rect class="cls-8" x="729.75" y="203.86" width="27.78" height="3.13"/><rect class="cls-3" x="729.75" y="209.65" width="31.86" height="3.13"/><rect class="cls-3" x="729.75" y="222.56" width="43.7" height="3.13"/><rect class="cls-8" x="729.75" y="228.77" width="21.85" height="3.13"/><rect class="cls-3" x="757.16" y="228.77" width="17.75" height="3.13"/><rect class="cls-3" x="729.75" y="236.39" width="15.93" height="3.13"/><rect class="cls-8" x="748.12" y="216.3" width="13.89" height="3.13"/><rect class="cls-3" x="766.5" y="216.3" width="6.95" height="3.13"/><rect class="cls-3" x="721.1" y="242.15" width="13.3" height="3.13"/><rect class="cls-7" x="721.1" y="249.8" width="13.3" height="3.13"/><rect class="cls-9" x="581.41" y="188.13" width="3.95" height="3.95"/><rect class="cls-9" x="581.41" y="195.79" width="3.95" height="3.95"/><rect class="cls-9" x="581.41" y="203.45" width="3.95" height="3.95"/><rect class="cls-9" x="581.41" y="211.1" width="3.95" height="3.95"/><rect class="cls-9" x="581.41" y="218.76" width="3.95" height="3.95"/><rect class="cls-9" x="581.41" y="226.42" width="3.95" height="3.95"/><rect class="cls-9" x="581.41" y="234.08" width="3.95" height="3.95"/><rect class="cls-9" x="581.41" y="241.74" width="3.95" height="3.95"/><rect class="cls-9" x="581.41" y="249.39" width="3.95" height="3.95"/><rect class="cls-9" x="702.63" y="188.13" width="3.95" height="3.95"/><rect class="cls-9" x="702.63" y="195.79" width="3.95" height="3.95"/><rect class="cls-9" x="702.63" y="203.45" width="3.95" height="3.95"/><rect class="cls-9" x="702.63" y="211.1" width="3.95" height="3.95"/><rect class="cls-9" x="702.63" y="218.76" width="3.95" height="3.95"/><rect class="cls-9" x="702.63" y="226.42" width="3.95" height="3.95"/><rect class="cls-9" x="702.63" y="234.08" width="3.95" height="3.95"/><rect class="cls-9" x="702.63" y="241.74" width="3.95" height="3.95"/><rect class="cls-9" x="702.63" y="249.39" width="3.95" height="3.95"/><rect class="cls-10" x="568.4" y="146.83" width="242.65" height="11.02"/><rect class="cls-11" x="690.28" y="146.83" width="1.89" height="138.25"/><circle class="cls-8" cx="681.22" cy="152.34" r="3.63"/><circle class="cls-7" cx="671.65" cy="152.34" r="3.63"/><circle class="cls-9" cx="662.09" cy="152.34" r="3.63"/><circle class="cls-8" cx="803.51" cy="152.34" r="3.63"/><circle class="cls-7" cx="793.95" cy="152.34" r="3.63"/><circle class="cls-9" cx="784.38" cy="152.34" r="3.63"/><rect class="cls-5" x="577.18" y="148.71" width="36.07" height="10.43"/><rect class="cls-5" x="699.77" y="148.71" width="36.07" height="10.43"/><polygon class="cls-12" points="552.17 265.26 552.17 298.74 505.47 298.74 505.47 248.72 534.02 248.72 552.17 265.26"/><polygon class="cls-3" points="552.17 265.26 534.02 265.26 534.02 248.72 552.17 265.26"/><polygon class="cls-3" points="518.83 286.75 508.87 278.5 518.79 269.25 520.15 270.71 511.89 278.41 520.11 285.21 518.83 286.75"/><polygon class="cls-3" points="538.86 286.71 537.49 285.25 545.75 277.55 537.54 270.75 538.81 269.21 548.77 277.47 538.86 286.71"/></g></g></g></svg>