<svg xmlns="http://www.w3.org/2000/svg" viewBox="0 0 1001.69 585.2"><defs><style>.cls-1{isolation:isolate;}.cls-2{fill:#266590;}.cls-3{fill:#fff;}.cls-4{fill:#f2f2f2;}.cls-5{fill:#313437;}.cls-6{opacity:0.2;mix-blend-mode:multiply;}.cls-7{fill:#fbab20;}.cls-8{fill:#f05364;}.cls-9{fill:#bfbfbf;}.cls-10{fill:#252729;}.cls-11{fill:#5a5d5f;opacity:0.3;}.cls-12{fill:none;stroke:#fff;stroke-miterlimit:10;stroke-width:3px;}</style></defs><title>banner5</title><g class="cls-1"><g id="Layer_2" data-name="Layer 2"><g id="_ÎÓÈ_1" data-name="—ÎÓÈ_1"><rect class="cls-2" x="1.69" width="1000" height="577"/><path class="cls-3" d="M524.59,226.85h0l-.16-.19c-1.92-2.23-3.24-5.69-4.05-10.6a42.82,42.82,0,0,1,1-17.76c3.12-11.85,10.53-19.63,20.86-21.93A26.7,26.7,0,0,1,568.8,185c10.86,12.09,13.06,31.83,5,45-1.77,2.87-8.11,12.11-15.5,10.24a8.44,8.44,0,0,1-4.29-2.55c-1.73-1.93-2.5-4.49-3.25-7s-1.37-4.57-2.76-6.11a6.72,6.72,0,0,0-4.19-2.1c-.23,0-.46-.06-.7-.08a13,13,0,0,0-7.48,2.21,17.1,17.1,0,0,0-2.27,1.82,9.5,9.5,0,0,1-3.69,2.43C527.89,229.28,526.18,228.62,524.59,226.85Zm41.51-39.46A23.21,23.21,0,0,0,543,179.91c-11.46,2.55-16.19,11.91-18.14,19.32a39.17,39.17,0,0,0-.9,16.25c.69,4.17,1.78,7.14,3.23,8.83l.11.13c.92,1,1.31.91,1.44.88a7.71,7.71,0,0,0,2.21-1.63,20,20,0,0,1,2.77-2.2,16.28,16.28,0,0,1,9.63-2.75,10.41,10.41,0,0,1,1,.11,10.27,10.27,0,0,1,6.31,3.26c1.93,2.14,2.75,4.86,3.54,7.49.66,2.2,1.29,4.27,2.48,5.6a4.75,4.75,0,0,0,2.49,1.46c4,1,8.7-4,11.53-8.63C577.86,216.39,575.79,198.16,566.1,187.38Z"/><circle class="cls-3" cx="563.12" cy="224.44" r="5.63" transform="translate(71.51 579.11) rotate(-57.54)"/><circle class="cls-3" cx="567.11" cy="205.71" r="5.63" transform="translate(89.2 573.86) rotate(-57.55)"/><circle class="cls-3" cx="557.5" cy="191.11" r="5.63" transform="translate(97.05 558.96) rotate(-57.54)"/><circle class="cls-3" cx="539.55" cy="190.39" r="5.63" transform="translate(89.33 543.46) rotate(-57.54)"/><circle class="cls-3" cx="533.13" cy="207.31" r="5.63" transform="translate(72.12 545.93) rotate(-57.55)"/><rect class="cls-3" x="533.14" y="191.79" width="8.71" height="14.41" transform="translate(48.39 497.78) rotate(-51.74)"/><path class="cls-2" d="M580.06,233.25a2.62,2.62,0,0,0,.37-.38,3.17,3.17,0,0,0,.38-3.08,10.51,10.51,0,0,0-1.71-3,36.29,36.29,0,0,0-6.29-6.19l-25.14-19.84.79-1-10.84-8.55a6.24,6.24,0,0,0-.26-2.12c-1.18-3.73-5.74-4.93-9.77-6-3.08-.81-6.57-1.73-7.35-3.56l-3.6-8.43,0,9.17a33.46,33.46,0,0,0,1.46,9.87c2,6.18,5.57,9.85,10.43,10.62a3.93,3.93,0,0,0,1.12,0l11.08,8.74.79-1,25.13,19.83C569,230.16,576.89,236,580.06,233.25Zm-46.76-34.4a16.71,16.71,0,0,0,3.14-3.86l5.23,4.13L538.6,203ZM521.73,189a27.92,27.92,0,0,1-1-4.25,32.66,32.66,0,0,0,5.89,2c3.17.84,5.73,1.61,6.76,2.86l-5.65,7.16C524.45,195.44,522.66,191.9,521.73,189ZM569,225.39l-25.13-19.83,1.5-1.9L558.44,214l12.06,9.52a27.14,27.14,0,0,1,6.32,6.54A27.52,27.52,0,0,1,569,225.39Z"/><path class="cls-3" d="M543.5,199.82l-3.81,4.82,28.15,22.21c5.09,4,10.07,6.19,11.12,4.86s-2.22-5.67-7.31-9.69Z"/><path class="cls-3" d="M528.87,198.9c-8-1.28-10.3-12-10.32-18.66,2.61,6.11,19,3.39,17.08,12C535.18,194.31,531.43,199.31,528.87,198.9Z"/><rect class="cls-3" x="871.98" y="255.39" width="4.29" height="43.07" transform="translate(27.18 628.29) rotate(-40.11)"/><rect class="cls-3" x="851.98" y="262.93" width="3.99" height="21.95" transform="translate(24.4 614.63) rotate(-40.11)"/><rect class="cls-3" x="847.69" y="267.96" width="3.99" height="31.19" transform="translate(17.16 614.12) rotate(-40.11)"/><rect class="cls-3" x="838.87" y="274.63" width="3.99" height="26.26" transform="translate(12.39 609.46) rotate(-40.11)"/><rect class="cls-3" x="835.17" y="279.44" width="3.99" height="37.24" transform="translate(4.88 609.48) rotate(-40.11)"/><path class="cls-3" d="M878.77,297.74l-5.52,4.65,4.65,5.52,5.52-4.65Zm-2.37,6.71a2.53,2.53,0,1,1,3.56.31A2.52,2.52,0,0,1,876.4,304.45Z"/><path class="cls-3" d="M871.51,303.86,866,308.51l4.65,5.52,5.52-4.65Zm-2.37,6.71a2.52,2.52,0,1,1,3.56.3A2.52,2.52,0,0,1,869.14,310.57Z"/><path class="cls-3" d="M864.27,309.95l-5.52,4.65,4.65,5.52,5.52-4.65Zm-2.37,6.71a2.53,2.53,0,1,1,3.56.3A2.53,2.53,0,0,1,861.91,316.66Z"/><path class="cls-3" d="M857,316l-5.52,4.65,4.65,5.52,5.52-4.65Zm-2.37,6.71a2.53,2.53,0,1,1,3.56.3A2.53,2.53,0,0,1,854.67,322.75Z"/><path class="cls-3" d="M858,241.2,781.2,305.93l48.55,57.63,76.84-64.73ZM830.56,358.51,786.31,306l71.17-60,44.25,52.53Z"/><path class="cls-3" d="M649.7,166.59l.37.38a20.71,20.71,0,0,0,9.37,5.37l-1.18,4.46.53.14c.34.07.82.19,1.4.29a25.19,25.19,0,0,0,4.33.41,25.89,25.89,0,0,0,4.34-.33l.8-.14.61-.13.53-.12-1.09-4.48a20.77,20.77,0,0,0,9.85-5.56l3.27,3.25.37-.39c.24-.25.58-.61,1-1.06a25.14,25.14,0,0,0,4.42-7.48c.1-.28.2-.54.28-.76l.19-.6.16-.52L684.8,158a21,21,0,0,0,.11-11.31l4.45-1.2-.14-.53c-.1-.33-.25-.8-.44-1.37a25.71,25.71,0,0,0-4.28-7.57c-.38-.45-.7-.83-.94-1.08l-.37-.4-3.33,3.19-.37-.38a20.74,20.74,0,0,0-9.37-5.37l1.18-4.46-.53-.14c-.34-.07-.82-.19-1.41-.3a25.39,25.39,0,0,0-4.33-.41,25.8,25.8,0,0,0-4.34.33l-.8.14-.61.13-.53.12,1.09,4.48a20.78,20.78,0,0,0-9.85,5.56l-3.27-3.25-.38.39c-.24.25-.58.61-1,1.06a25.09,25.09,0,0,0-4.42,7.48c-.1.28-.2.54-.28.77l-.19.6-.16.52,4.43,1.29a21,21,0,0,0-.11,11.31l-4.46,1.2.14.52c.1.33.25.81.44,1.37a26,26,0,0,0,1.81,4,26.44,26.44,0,0,0,2.46,3.6c.39.45.71.83.94,1.09l.37.39Zm5.57-23.86a13.41,13.41,0,1,1,0,19A13.41,13.41,0,0,1,655.27,142.73Z"/><path class="cls-3" d="M597,147.27c-.07.12-.14.23-.2.34a15.46,15.46,0,0,0-1.86,7.85l-3.45.1s0,.15,0,.41,0,.63.09,1.07a18.63,18.63,0,0,0,.63,3.19,19.23,19.23,0,0,0,1.15,3l.27.54.22.41.2.36,3-1.73a15.52,15.52,0,0,0,6.07,5.88l-1.63,3,.36.19c.23.12.56.29,1,.46a18.69,18.69,0,0,0,6.3,1.58l.61,0h.87v-3.45a15.63,15.63,0,0,0,8.12-2.32l1.81,2.93.35-.22.88-.61a19.14,19.14,0,0,0,4.51-4.67c.24-.37.44-.68.57-.9l.21-.35-3-1.71.2-.34a15.49,15.49,0,0,0,1.85-7.85l3.45-.1s0-.15,0-.41,0-.63-.09-1.07a18.76,18.76,0,0,0-.63-3.19,19.32,19.32,0,0,0-1.16-3l-.27-.54-.22-.41-.2-.35-3,1.73a15.52,15.52,0,0,0-6.08-5.87l1.64-3-.36-.19c-.23-.12-.56-.28-1-.46a18.56,18.56,0,0,0-3.08-1.06,19.11,19.11,0,0,0-3.22-.52l-.61,0h-.88l0,3.45a15.62,15.62,0,0,0-8.12,2.33l-1.81-2.94-.34.21-.89.61a19.53,19.53,0,0,0-2.46,2.14,19.8,19.8,0,0,0-2.06,2.53l-.58.91-.2.35Zm18.27-1.08a10,10,0,1,1-13.57,4.07A10,10,0,0,1,615.29,146.19Z"/><path class="cls-3" d="M620.11,185.25l-.36.25a17.11,17.11,0,0,0-5.57,7l-3.5-1.53-.18.41c-.1.27-.26.65-.42,1.11a21,21,0,0,0-.88,3.49,22.13,22.13,0,0,0-.28,3.58c0,.25,0,.47,0,.67l0,.52c0,.28,0,.45,0,.45l3.8-.32a17.15,17.15,0,0,0,3.29,8.75L613,211.86l.27.35c.18.23.42.55.75.92a20.56,20.56,0,0,0,2.57,2.52,21.23,21.23,0,0,0,3,2l.59.32.46.23.41.2,1.61-3.45a17.32,17.32,0,0,0,9.22,1.51l.42,3.79.45,0,1.17-.19a20.94,20.94,0,0,0,3.47-1,21.67,21.67,0,0,0,3.25-1.55l1-.63.37-.26-2.18-3.13.36-.25a17.15,17.15,0,0,0,5.57-7l3.49,1.53.18-.41c.1-.27.26-.65.42-1.11a21.06,21.06,0,0,0,.88-3.49,21.82,21.82,0,0,0,.28-3.58c0-.24,0-.47,0-.67s0-.37,0-.52l0-.45-3.8.32a17.15,17.15,0,0,0-3.29-8.75l3.07-2.26-.27-.35c-.18-.23-.42-.55-.75-.92a20.76,20.76,0,0,0-5.55-4.56l-.58-.32-.47-.23-.4-.2-1.62,3.46a17.27,17.27,0,0,0-9.22-1.52l-.42-3.79-.45.05-1.17.19a21.64,21.64,0,0,0-3.47,1,22.38,22.38,0,0,0-3.25,1.55l-1,.63-.37.25Zm18.79,7.56a11.08,11.08,0,1,1-15.5-2.35A11.09,11.09,0,0,1,638.89,192.81Z"/><rect class="cls-3" x="703.39" y="175.69" width="10.26" height="12.99"/><rect class="cls-3" x="720.16" y="152.26" width="10.26" height="36.43"/><rect class="cls-3" x="736.76" y="161.68" width="10.26" height="27.01"/><rect class="cls-3" x="753.37" y="144.01" width="10.26" height="44.67"/><path class="cls-3" d="M746.78,139.49a25.36,25.36,0,1,0-3.35,38.65l5.74,5.74a6.34,6.34,0,0,0,1.67,5.61l17.61,17.61c2.53,2.53,6.87,2.34,9.64-.43s3-7.11.43-9.64l-17.61-17.61a6.33,6.33,0,0,0-5.6-1.67L749.57,172A25.34,25.34,0,0,0,746.78,139.49ZM717,169.26a16.73,16.73,0,1,1,23.66,0A16.73,16.73,0,0,1,717,169.26Z"/><path class="cls-2" d="M772.87,210.83a8.13,8.13,0,0,1-5.8-2.35l-17.61-17.61a8.13,8.13,0,0,1-2.33-6.27l-4-4a27.31,27.31,0,1,1,8.91-8.91l4,4A8.21,8.21,0,0,1,762.3,178l17.61,17.61a8.14,8.14,0,0,1,2.34,6.2,9.52,9.52,0,0,1-9.38,9ZM743.64,175.6l7.62,7.62-.17,1a4.37,4.37,0,0,0,1.13,3.89l17.6,17.61a4.25,4.25,0,0,0,3,1.21,5.61,5.61,0,0,0,5.47-5.26,4.27,4.27,0,0,0-1.2-3.26L759.53,180.8a4.44,4.44,0,0,0-3.89-1.13l-1,.17L747,172.22l.95-1.34a23.42,23.42,0,1,0-5.67,5.67Zm-14.8.51a18.68,18.68,0,1,1,13.21-5.47A18.57,18.57,0,0,1,728.85,176.11Zm0-33.47A14.78,14.78,0,1,0,739.3,147,14.68,14.68,0,0,0,728.85,142.64Z"/><path class="cls-3" d="M523.29,295.13l-3.22-1.4c-1.6-.51-5.35-1-12.78,1.29l-.19.06-.64.23-.17.06-.69.21-.35.17-.2,0a24.26,24.26,0,0,1-2.54.51l-.84.1-.18,0-.75.06-.24,0-.74,0h-1.39l-.6,0-.49,0-.31,0-.7-.07-.54-.07-.5-.08-.56-.1-.38-.07-.12,0-.46-.1-.62-.16-.48-.13-.59-.18-.42-.13-.69-.24-.3-.11c-.38-.15-.72-.29-1.06-.43a24,24,0,1,1,19.09-43.94c.34.15.68.31,1,.47l.27.13.58.3,1,.56.51.32.9.6.43.31.37.28.89.72.36.31.44.4.73.71.26.27.14.14.35.38.16.19c.21.23.37.41.52.61l.11.14.6.77-1.44,1.14,1.53-1,.43.59c.32.47.62.94.9,1.41h.06l.74,1.48.24.49c.16.33.28.6.39.87,3.43,7,6.34,9.48,7.8,10.31l3.21,1.39Zm-18.22-3.23.25-.08.61-.22.12,0c8.23-2.53,12.82-2.1,15.25-1.3l.08,0,5.9-13.56-.08,0c-2.24-1.23-5.68-4.29-9.41-12l-.11-.25c-.07-.16-.16-.37-.25-.57s-.26-.54-.38-.77l-.14-.27a20.24,20.24,0,0,0-1.17-1.92l-.37-.5-.65-.84-.41-.49-.59-.65-.26-.28-.55-.52-.42-.38-1.36-1.09-.36-.26-.79-.53-.35-.22-1.59-.87c-.31-.15-.59-.29-.87-.41A20.28,20.28,0,1,0,491,291.13l.87.35.29.1.57.2.39.12.49.15,1.71.4.49.09.41.06.45.06,2.11.14h.79l.69,0,.24,0,.62,0,.17,0,.71-.09a21.12,21.12,0,0,0,2.29-.48l.28-.08Z"/><rect class="cls-3" x="522.24" y="286.45" width="22.22" height="1.8" transform="translate(57.21 661.94) rotate(-66.51)"/><rect class="cls-3" x="519.19" y="285.12" width="22.22" height="1.8" transform="translate(56.6 658.36) rotate(-66.51)"/><path class="cls-3" d="M540.61,290.5c2.27-5.22,1.92-10.4-.78-11.57l-8.22,18.9C534.31,299,538.33,295.72,540.61,290.5Z"/><path class="cls-3" d="M473.23,285a1,1,0,0,1-.58.54l-10.18,3.63a1,1,0,0,1-.67-1.88L472,283.62a1,1,0,0,1,1.28.61A1,1,0,0,1,473.23,285Z"/><path class="cls-3" d="M469.11,274.64a1,1,0,0,1-.8.6l-10.73,1.26a1,1,0,1,1-.23-2l10.74-1.26a1,1,0,0,1,1.11.88A1,1,0,0,1,469.11,274.64Z"/><path class="cls-3" d="M470.87,260.71h0a1,1,0,0,1-1.32.51l-9.88-4.38a1,1,0,0,1-.51-1.31h0a1,1,0,0,1,1.32-.51l9.88,4.37A1,1,0,0,1,470.87,260.71Z"/><path class="cls-3" d="M490.21,245.9a1,1,0,0,1-1.84,0L484.08,236a1,1,0,0,1,1.83-.79l4.29,9.92A1,1,0,0,1,490.21,245.9Z"/><path class="cls-3" d="M479.85,249.93a1,1,0,0,1-1.72.19l-6.4-8.71a1,1,0,1,1,1.6-1.18l6.4,8.71A1,1,0,0,1,479.85,249.93Z"/><path class="cls-3" d="M819.54,168.51A31.48,31.48,0,1,0,851,200,31.48,31.48,0,0,0,819.54,168.51Zm0,59.28a27.8,27.8,0,1,1,27.8-27.8A27.81,27.81,0,0,1,819.54,227.79Z"/><rect class="cls-3" x="818.03" y="173.51" width="3.02" height="7.22"/><rect class="cls-3" x="818.03" y="219.34" width="3.02" height="7.22"/><rect class="cls-3" x="838.84" y="198.48" width="7.23" height="3.02"/><rect class="cls-3" x="793.02" y="198.48" width="7.22" height="3.02"/><rect class="cls-3" x="832.12" y="182.29" width="7.22" height="3.02" transform="translate(114.71 644.62) rotate(-44.99)"/><rect class="cls-3" x="799.71" y="214.7" width="7.23" height="3.02" transform="translate(82.22 631.04) rotate(-44.97)"/><rect class="cls-3" x="834.25" y="212.56" width="3.02" height="7.22" transform="translate(91.97 654.36) rotate(-45.01)"/><rect class="cls-3" x="801.85" y="180.15" width="3.02" height="7.23" transform="translate(105.36 621.88) rotate(-45)"/><path class="cls-3" d="M828.3,190l-7.39,7.39a3.33,3.33,0,0,0-.62-.21V183h-1.51v14.12a3.15,3.15,0,0,0-2.48,3,3.24,3.24,0,0,0,6.47,0,3,3,0,0,0-.39-1.46l7.34-7.34Z"/><path class="cls-4" d="M812,209.67H559.89a4.62,4.62,0,0,0-4.6,4.6V383H816.6V214.28A4.62,4.62,0,0,0,812,209.67Z"/><rect class="cls-5" x="564.62" y="217.37" width="242.65" height="138.25"/><polygon class="cls-4" points="735.76 407.33 735.76 413.77 636.13 413.77 636.13 407.33 642.2 389.01 642.87 387.01 644.2 382.99 727.69 382.99 729.02 387.01 729.68 389.01 735.76 407.33"/><polygon class="cls-6" points="729.68 389.01 642.2 389.01 642.87 387.01 644.2 382.99 727.69 382.99 729.02 387.01 729.68 389.01"/><rect class="cls-7" x="596.1" y="259.08" width="13.3" height="3.13"/><rect class="cls-3" x="596.1" y="266.74" width="13.3" height="3.13"/><rect class="cls-8" x="604.75" y="274.39" width="27.78" height="3.13"/><rect class="cls-3" x="636.61" y="274.39" width="16.26" height="3.13"/><rect class="cls-3" x="604.75" y="280.19" width="31.87" height="3.13"/><rect class="cls-8" x="604.75" y="293.1" width="43.7" height="3.13"/><rect class="cls-8" x="604.75" y="299.31" width="21.85" height="3.13"/><rect class="cls-3" x="630.07" y="299.31" width="6.54" height="3.13"/><rect class="cls-3" x="641.47" y="299.31" width="6.54" height="3.13"/><rect class="cls-3" x="604.75" y="306.93" width="15.93" height="3.13"/><rect class="cls-8" x="623.12" y="286.84" width="13.89" height="3.13"/><rect class="cls-3" x="641.5" y="286.84" width="22.46" height="3.13"/><rect class="cls-3" x="596.1" y="312.68" width="13.3" height="3.13"/><rect class="cls-7" x="596.1" y="318.37" width="13.3" height="3.13"/><rect class="cls-7" x="717.32" y="259.08" width="13.3" height="3.13"/><rect class="cls-3" x="717.32" y="266.74" width="13.3" height="3.13"/><rect class="cls-8" x="725.97" y="274.39" width="27.78" height="3.13"/><rect class="cls-3" x="725.97" y="280.19" width="31.86" height="3.13"/><rect class="cls-3" x="725.97" y="293.1" width="43.7" height="3.13"/><rect class="cls-8" x="725.97" y="299.31" width="21.85" height="3.13"/><rect class="cls-3" x="753.38" y="299.31" width="17.75" height="3.13"/><rect class="cls-3" x="725.97" y="306.93" width="15.93" height="3.13"/><rect class="cls-8" x="744.35" y="286.84" width="13.89" height="3.13"/><rect class="cls-3" x="762.72" y="286.84" width="6.95" height="3.13"/><rect class="cls-3" x="717.32" y="312.68" width="13.3" height="3.13"/><rect class="cls-7" x="717.32" y="320.34" width="13.3" height="3.13"/><rect class="cls-9" x="577.63" y="258.67" width="3.95" height="3.95"/><rect class="cls-9" x="577.63" y="266.33" width="3.95" height="3.95"/><rect class="cls-9" x="577.63" y="273.99" width="3.95" height="3.95"/><rect class="cls-9" x="577.63" y="281.64" width="3.95" height="3.95"/><rect class="cls-9" x="577.63" y="289.3" width="3.95" height="3.95"/><rect class="cls-9" x="577.63" y="296.96" width="3.95" height="3.95"/><rect class="cls-9" x="577.63" y="304.62" width="3.95" height="3.95"/><rect class="cls-9" x="577.63" y="312.27" width="3.95" height="3.95"/><rect class="cls-9" x="577.63" y="319.93" width="3.95" height="3.95"/><rect class="cls-9" x="698.85" y="258.67" width="3.95" height="3.95"/><rect class="cls-9" x="698.85" y="266.33" width="3.95" height="3.95"/><rect class="cls-9" x="698.85" y="273.99" width="3.95" height="3.95"/><rect class="cls-9" x="698.85" y="281.64" width="3.95" height="3.95"/><rect class="cls-9" x="698.85" y="289.3" width="3.95" height="3.95"/><rect class="cls-9" x="698.85" y="296.96" width="3.95" height="3.95"/><rect class="cls-9" x="698.85" y="304.62" width="3.95" height="3.95"/><rect class="cls-9" x="698.85" y="312.27" width="3.95" height="3.95"/><rect class="cls-9" x="698.85" y="319.93" width="3.95" height="3.95"/><rect class="cls-10" x="564.62" y="217.37" width="242.65" height="11.02"/><rect class="cls-11" x="686.5" y="217.37" width="1.89" height="138.25"/><circle class="cls-8" cx="677.44" cy="222.88" r="3.63"/><circle class="cls-7" cx="667.88" cy="222.88" r="3.63"/><circle class="cls-9" cx="658.31" cy="222.88" r="3.63"/><circle class="cls-8" cx="799.73" cy="222.88" r="3.63"/><circle class="cls-7" cx="790.17" cy="222.88" r="3.63"/><circle class="cls-9" cx="780.6" cy="222.88" r="3.63"/><rect class="cls-5" x="573.4" y="219.25" width="36.07" height="10.43"/><rect class="cls-5" x="696" y="219.25" width="36.07" height="10.43"/><polygon class="cls-12" points="548.39 335.8 548.39 369.28 501.69 369.28 501.69 319.26 530.24 319.26 548.39 335.8"/><polygon class="cls-3" points="548.39 335.8 530.24 335.8 530.24 319.26 548.39 335.8"/><polygon class="cls-3" points="515.05 357.29 505.09 349.03 515.01 339.79 516.37 341.25 508.12 348.95 516.33 355.75 515.05 357.29"/><polygon class="cls-3" points="535.08 357.25 533.72 355.79 541.97 348.09 533.76 341.29 535.03 339.75 545 348 535.08 357.25"/><rect class="cls-3" y="506.99" width="996.22" height="78.21"/></g></g></g></svg>