<svg xmlns="http://www.w3.org/2000/svg" viewBox="0 0 1000 384.04"><defs><style>.cls-1{isolation:isolate;}.cls-2{fill:#266590;}.cls-3{fill:#fff;}.cls-4{fill:#f2f2f2;}.cls-5{fill:#313437;}.cls-6{opacity:0.2;mix-blend-mode:multiply;}.cls-7{fill:#fbab20;}.cls-8{fill:#f05364;}.cls-9{fill:#bfbfbf;}.cls-10{fill:#252729;}.cls-11{fill:#5a5d5f;opacity:0.3;}.cls-12{fill:none;stroke:#fff;stroke-miterlimit:10;stroke-width:3px;}</style></defs><title>banner1</title><g class="cls-1"><g id="Layer_2" data-name="Layer 2"><g id="_ÎÓÈ_1" data-name="—ÎÓÈ_1"><rect class="cls-2" width="1000" height="384.04"/><path class="cls-3" d="M601,183.32h0l-.16-.19c-1.91-2.23-3.24-5.69-4.05-10.6a42.82,42.82,0,0,1,1-17.76c3.12-11.85,10.53-19.63,20.86-21.93a26.7,26.7,0,0,1,26.59,8.59c10.86,12.09,13.06,31.83,5,45-1.77,2.87-8.11,12.11-15.5,10.24a8.44,8.44,0,0,1-4.29-2.55c-1.73-1.93-2.5-4.49-3.25-7s-1.37-4.57-2.76-6.11a6.72,6.72,0,0,0-4.19-2.1c-.23,0-.46-.06-.7-.08A13,13,0,0,0,612,181a17.1,17.1,0,0,0-2.27,1.82,9.5,9.5,0,0,1-3.69,2.43C604.26,185.75,602.55,185.09,601,183.32Zm41.51-39.46a23.21,23.21,0,0,0-23.12-7.48c-11.46,2.55-16.19,11.91-18.14,19.32a39.17,39.17,0,0,0-.9,16.25c.69,4.17,1.78,7.14,3.23,8.83l.11.13c.92,1,1.31.91,1.44.88a7.71,7.71,0,0,0,2.21-1.63,20,20,0,0,1,2.77-2.2,16.28,16.28,0,0,1,9.63-2.75,10.41,10.41,0,0,1,1,.11,10.27,10.27,0,0,1,6.31,3.26c1.93,2.14,2.75,4.86,3.54,7.49.66,2.2,1.29,4.27,2.48,5.6a4.75,4.75,0,0,0,2.49,1.46c4,1,8.7-4,11.53-8.63C654.23,172.86,652.16,154.63,642.47,143.85Z"/><circle class="cls-3" cx="639.49" cy="180.91" r="5.63" transform="translate(143.62 623.39) rotate(-57.54)"/><circle class="cls-3" cx="643.48" cy="162.18" r="5.63" transform="translate(161.32 618.13) rotate(-57.55)"/><circle class="cls-3" cx="633.87" cy="147.58" r="5.63" transform="translate(169.16 603.23) rotate(-57.54)"/><circle class="cls-3" cx="615.92" cy="146.86" r="5.63" transform="translate(161.44 587.73) rotate(-57.54)"/><circle class="cls-3" cx="609.49" cy="163.78" r="5.63" transform="translate(144.24 590.21) rotate(-57.55)"/><rect class="cls-3" x="609.51" y="148.26" width="8.71" height="14.41" transform="translate(111.64 541.17) rotate(-51.74)"/><path class="cls-2" d="M656.43,189.72a2.62,2.62,0,0,0,.37-.38,3.17,3.17,0,0,0,.38-3.08,10.51,10.51,0,0,0-1.71-3,36.29,36.29,0,0,0-6.29-6.19L624,157.2l.79-1L614,147.65a6.24,6.24,0,0,0-.26-2.12c-1.18-3.73-5.74-4.93-9.77-6-3.08-.81-6.57-1.73-7.35-3.56l-3.6-8.43,0,9.17a33.46,33.46,0,0,0,1.46,9.87c2,6.18,5.57,9.85,10.43,10.62a3.93,3.93,0,0,0,1.12,0L617.13,166l.79-1,25.13,19.83C645.39,186.63,653.26,192.43,656.43,189.72Zm-46.76-34.4a16.71,16.71,0,0,0,3.14-3.86l5.23,4.13L615,159.5Zm-11.57-9.88a27.92,27.92,0,0,1-1-4.25,32.66,32.66,0,0,0,5.89,2c3.17.84,5.73,1.61,6.76,2.86l-5.65,7.16C600.82,151.91,599,148.37,598.1,145.44Zm47.26,36.42L620.24,162l1.5-1.9,13.07,10.32L646.87,180a27.14,27.14,0,0,1,6.32,6.54A27.52,27.52,0,0,1,645.37,181.86Z"/><path class="cls-3" d="M619.87,156.29l-3.81,4.82,28.15,22.21c5.09,4,10.07,6.19,11.12,4.86s-2.22-5.67-7.31-9.69Z"/><path class="cls-3" d="M605.23,155.37c-8-1.28-10.3-12-10.32-18.66,2.61,6.11,19,3.39,17.08,12C611.55,150.78,607.8,155.78,605.23,155.37Z"/><rect class="cls-3" x="948.34" y="211.86" width="4.29" height="43.07" transform="translate(73.18 667.25) rotate(-40.11)"/><rect class="cls-3" x="928.35" y="219.4" width="3.99" height="21.95" transform="translate(70.4 653.6) rotate(-40.11)"/><rect class="cls-3" x="924.06" y="224.43" width="3.99" height="31.19" transform="translate(63.17 653.08) rotate(-40.11)"/><rect class="cls-3" x="915.24" y="231.1" width="3.99" height="26.26" transform="translate(58.4 648.43) rotate(-40.11)"/><rect class="cls-3" x="911.54" y="235.91" width="3.99" height="37.24" transform="translate(50.89 648.44) rotate(-40.11)"/><path class="cls-3" d="M955.14,254.21l-5.52,4.65,4.65,5.52,5.52-4.65Zm-2.37,6.71a2.53,2.53,0,1,1,3.56.31A2.52,2.52,0,0,1,952.77,260.92Z"/><path class="cls-3" d="M947.88,260.33,942.36,265l4.65,5.52,5.52-4.65ZM945.51,267a2.52,2.52,0,1,1,3.56.3A2.52,2.52,0,0,1,945.51,267Z"/><path class="cls-3" d="M940.64,266.42l-5.52,4.65,4.65,5.52,5.52-4.65Zm-2.37,6.71a2.53,2.53,0,1,1,3.56.3A2.53,2.53,0,0,1,938.27,273.13Z"/><path class="cls-3" d="M933.41,272.51l-5.52,4.65,4.65,5.52,5.52-4.65ZM931,279.22a2.53,2.53,0,1,1,3.56.3A2.53,2.53,0,0,1,931,279.22Z"/><path class="cls-3" d="M934.41,197.67,857.57,262.4,906.13,320,983,255.3ZM906.93,315l-44.25-52.52,71.17-60L978.11,255Z"/><path class="cls-3" d="M726.07,123.06l.37.38a20.71,20.71,0,0,0,9.37,5.37l-1.18,4.46.53.14c.34.07.82.19,1.4.29a25.19,25.19,0,0,0,4.33.41,25.89,25.89,0,0,0,4.34-.33l.8-.14.61-.13.53-.12-1.08-4.48a20.77,20.77,0,0,0,9.85-5.56l3.27,3.25.37-.39c.24-.25.58-.61,1-1.06a25.14,25.14,0,0,0,4.42-7.48c.1-.28.2-.54.28-.76l.19-.6.16-.52-4.43-1.29a21,21,0,0,0,.11-11.31l4.45-1.2-.14-.53c-.1-.33-.25-.8-.44-1.37a25.71,25.71,0,0,0-4.28-7.57c-.38-.45-.7-.83-.94-1.08l-.37-.39-3.33,3.19-.37-.38a20.74,20.74,0,0,0-9.37-5.37L747.68,84l-.53-.14c-.34-.07-.82-.19-1.41-.3a25.39,25.39,0,0,0-4.33-.41,25.8,25.8,0,0,0-4.34.33l-.8.14-.61.13-.53.12,1.09,4.48a20.78,20.78,0,0,0-9.85,5.56l-3.27-3.25-.38.39c-.24.25-.58.61-1,1.06a25.09,25.09,0,0,0-4.42,7.48c-.1.28-.2.54-.28.77l-.19.6-.16.52,4.43,1.29A21,21,0,0,0,721,114.1l-4.46,1.2.14.52c.1.33.25.81.44,1.37a26,26,0,0,0,1.81,4,26.44,26.44,0,0,0,2.46,3.6c.39.45.71.83.94,1.09l.37.39Zm5.57-23.86a13.41,13.41,0,1,1,0,19A13.41,13.41,0,0,1,731.64,99.2Z"/><path class="cls-3" d="M673.38,103.74c-.07.12-.14.23-.2.34a15.46,15.46,0,0,0-1.86,7.85l-3.45.1s0,.15,0,.41,0,.63.09,1.07a18.63,18.63,0,0,0,.63,3.19,19.23,19.23,0,0,0,1.15,3l.27.54.22.41.2.36,3-1.73a15.52,15.52,0,0,0,6.07,5.88l-1.63,3,.36.19c.23.12.56.29,1,.46a18.69,18.69,0,0,0,6.29,1.58l.61,0H687v-3.45a15.63,15.63,0,0,0,8.12-2.32l1.81,2.93.35-.22.88-.61a19.14,19.14,0,0,0,4.51-4.67c.24-.37.44-.68.57-.9l.21-.35-3-1.71.2-.34a15.49,15.49,0,0,0,1.85-7.85l3.45-.1s0-.15,0-.41,0-.63-.09-1.07a18.76,18.76,0,0,0-.63-3.19,19.32,19.32,0,0,0-1.16-3l-.27-.54-.22-.41-.2-.35-3,1.73a15.52,15.52,0,0,0-6.08-5.87l1.64-3-.36-.19c-.23-.12-.56-.28-1-.46A18.56,18.56,0,0,0,691.53,93a19.11,19.11,0,0,0-3.22-.52l-.61,0h-.88l0,3.45a15.62,15.62,0,0,0-8.12,2.33l-1.81-2.94-.34.21-.89.61a19.53,19.53,0,0,0-2.46,2.14,19.8,19.8,0,0,0-2.06,2.53l-.58.91-.2.35Zm18.27-1.08a10,10,0,1,1-13.57,4.07A10,10,0,0,1,691.66,102.66Z"/><path class="cls-3" d="M696.47,141.72l-.36.25a17.11,17.11,0,0,0-5.57,7l-3.5-1.53-.18.41c-.1.27-.26.65-.42,1.11a21,21,0,0,0-.88,3.49,22.13,22.13,0,0,0-.28,3.58c0,.25,0,.47,0,.67l0,.52c0,.28,0,.45,0,.45l3.8-.32a17.15,17.15,0,0,0,3.29,8.75l-3.07,2.26.27.35c.18.23.42.55.75.92a20.56,20.56,0,0,0,2.57,2.52,21.23,21.23,0,0,0,3,2l.59.32.46.23.41.2,1.61-3.45a17.32,17.32,0,0,0,9.22,1.51l.42,3.79.45,0,1.17-.19a20.94,20.94,0,0,0,3.47-1A21.67,21.67,0,0,0,717,174l1-.63.37-.26L716.2,170l.36-.25a17.15,17.15,0,0,0,5.57-7l3.49,1.53.18-.41c.1-.27.26-.65.42-1.11a21.06,21.06,0,0,0,.88-3.49,21.82,21.82,0,0,0,.28-3.58c0-.24,0-.47,0-.67s0-.37,0-.52l0-.45-3.8.32a17.15,17.15,0,0,0-3.29-8.75l3.07-2.26L723,143c-.18-.23-.42-.55-.75-.92a20.76,20.76,0,0,0-5.55-4.56l-.58-.32-.47-.23-.4-.2-1.62,3.46a17.27,17.27,0,0,0-9.22-1.52l-.42-3.79-.45.05-1.17.19a21.64,21.64,0,0,0-3.47,1,22.38,22.38,0,0,0-3.25,1.55l-1,.63-.37.25Zm18.79,7.56a11.08,11.08,0,1,1-15.5-2.35A11.09,11.09,0,0,1,715.26,149.28Z"/><rect class="cls-3" x="779.76" y="132.16" width="10.26" height="12.99"/><rect class="cls-3" x="796.53" y="108.73" width="10.26" height="36.43"/><rect class="cls-3" x="813.13" y="118.15" width="10.26" height="27.01"/><rect class="cls-3" x="829.74" y="100.48" width="10.26" height="44.67"/><path class="cls-3" d="M823.15,96a25.36,25.36,0,1,0-3.35,38.65l5.74,5.74a6.34,6.34,0,0,0,1.67,5.61l17.61,17.61c2.53,2.53,6.87,2.34,9.64-.43s3-7.11.43-9.64l-17.61-17.61a6.33,6.33,0,0,0-5.6-1.67l-5.75-5.75A25.34,25.34,0,0,0,823.15,96Zm-29.76,29.76a16.73,16.73,0,1,1,23.66,0A16.73,16.73,0,0,1,793.38,125.73Z"/><path class="cls-2" d="M849.24,167.3a8.13,8.13,0,0,1-5.8-2.35l-17.61-17.61a8.13,8.13,0,0,1-2.33-6.27l-4-4a27.31,27.31,0,1,1,8.91-8.91l4,4a8.21,8.21,0,0,1,6.26,2.33l17.61,17.61a8.14,8.14,0,0,1,2.34,6.2,9.52,9.52,0,0,1-9.38,9ZM820,132.07l7.62,7.62-.17,1a4.37,4.37,0,0,0,1.13,3.89l17.6,17.61a4.25,4.25,0,0,0,3,1.21,5.61,5.61,0,0,0,5.47-5.26,4.27,4.27,0,0,0-1.2-3.26L835.9,137.27a4.44,4.44,0,0,0-3.89-1.13l-1,.17-7.62-7.62.95-1.34a23.42,23.42,0,1,0-5.67,5.67Zm-14.8.51a18.68,18.68,0,1,1,13.21-5.47A18.57,18.57,0,0,1,805.22,132.58Zm0-33.47a14.78,14.78,0,1,0,10.45,4.33A14.68,14.68,0,0,0,805.22,99.11Z"/><path class="cls-3" d="M599.66,251.6l-3.22-1.4c-1.6-.51-5.35-1-12.78,1.29l-.19.06-.64.23-.17.06L582,252l-.35.17-.2,0a24.26,24.26,0,0,1-2.54.51l-.84.1-.18,0-.75.06-.24,0-.74,0h-1.39l-.6,0-.49,0-.31,0-.7-.07-.55-.07-.5-.08-.56-.1-.38-.07-.12,0-.46-.1-.62-.16-.48-.13-.59-.18-.42-.13-.69-.24-.3-.11c-.38-.15-.72-.29-1.06-.43A24,24,0,1,1,585,207c.34.15.68.31,1,.47l.27.13.58.3,1,.56.51.32.9.6.43.31.37.28.89.72.36.31.44.4.73.71.26.27.14.14.35.38.16.19c.21.23.37.41.52.61l.11.14.6.77-1.44,1.14,1.53-1,.43.59c.32.47.62.94.9,1.41h.06l.74,1.48.24.49c.16.33.28.6.39.87,3.43,7,6.34,9.48,7.8,10.31l3.21,1.39Zm-18.22-3.23.25-.08.61-.22.12,0c8.23-2.53,12.82-2.1,15.25-1.3l.08,0,5.9-13.56-.09,0c-2.24-1.23-5.68-4.29-9.41-12l-.11-.25c-.07-.16-.16-.37-.25-.57s-.26-.54-.38-.77l-.14-.27a20.24,20.24,0,0,0-1.17-1.92l-.37-.5-.65-.84-.41-.49-.59-.65-.26-.28-.55-.52-.42-.38-1.36-1.09-.36-.26-.79-.53-.35-.22-1.59-.87c-.31-.15-.59-.29-.87-.41a20.28,20.28,0,1,0-16.17,37.2l.87.35.29.1.57.2.39.12.49.15,1.71.4.49.09.41.06.45.06,2.11.14h.79l.69,0,.24,0,.62,0,.17,0,.71-.09a21.12,21.12,0,0,0,2.29-.48l.28-.08Z"/><rect class="cls-3" x="598.61" y="242.92" width="22.22" height="1.8" transform="translate(143.05 705.8) rotate(-66.51)"/><rect class="cls-3" x="595.56" y="241.59" width="22.22" height="1.8" transform="translate(142.44 702.22) rotate(-66.51)"/><path class="cls-3" d="M617,247c2.27-5.22,1.92-10.4-.78-11.57L608,254.3C610.68,255.47,614.7,252.19,617,247Z"/><path class="cls-3" d="M549.6,241.43a1,1,0,0,1-.58.54l-10.18,3.63a1,1,0,0,1-.67-1.88l10.18-3.63a1,1,0,0,1,1.28.61A1,1,0,0,1,549.6,241.43Z"/><path class="cls-3" d="M545.48,231.11a1,1,0,0,1-.8.6L533.95,233a1,1,0,1,1-.23-2l10.74-1.26a1,1,0,0,1,1.11.88A1,1,0,0,1,545.48,231.11Z"/><path class="cls-3" d="M547.24,217.18h0a1,1,0,0,1-1.32.51L536,213.32a1,1,0,0,1-.51-1.31h0a1,1,0,0,1,1.32-.51l9.88,4.37A1,1,0,0,1,547.24,217.18Z"/><path class="cls-3" d="M566.58,202.37a1,1,0,0,1-1.84,0l-4.29-9.92a1,1,0,0,1,1.83-.79l4.29,9.92A1,1,0,0,1,566.58,202.37Z"/><path class="cls-3" d="M556.22,206.4a1,1,0,0,1-1.72.19l-6.4-8.71a1,1,0,1,1,1.6-1.18l6.4,8.71A1,1,0,0,1,556.22,206.4Z"/><path class="cls-3" d="M895.91,125a31.48,31.48,0,1,0,31.48,31.48A31.48,31.48,0,0,0,895.91,125Zm0,59.28a27.8,27.8,0,1,1,27.8-27.8A27.81,27.81,0,0,1,895.91,184.26Z"/><rect class="cls-3" x="894.4" y="129.98" width="3.02" height="7.22"/><rect class="cls-3" x="894.4" y="175.81" width="3.02" height="7.22"/><rect class="cls-3" x="915.21" y="154.95" width="7.23" height="3.02"/><rect class="cls-3" x="869.39" y="154.95" width="7.22" height="3.02"/><rect class="cls-3" x="908.49" y="138.76" width="7.22" height="3.02" transform="translate(167.83 685.86) rotate(-44.99)"/><rect class="cls-3" x="876.08" y="171.17" width="7.23" height="3.02" transform="translate(135.33 672.28) rotate(-44.97)"/><rect class="cls-3" x="910.62" y="169.03" width="3.02" height="7.22" transform="translate(145.13 695.62) rotate(-45.01)"/><rect class="cls-3" x="878.22" y="136.62" width="3.02" height="7.23" transform="translate(158.5 663.13) rotate(-45)"/><path class="cls-3" d="M904.67,146.43l-7.39,7.39a3.33,3.33,0,0,0-.62-.21V139.49h-1.51v14.12a3.15,3.15,0,0,0-2.48,3,3.24,3.24,0,0,0,6.47,0,3,3,0,0,0-.39-1.46l7.34-7.34Z"/><path class="cls-4" d="M888.37,166.14H636.26a4.62,4.62,0,0,0-4.6,4.6V339.47H893V170.75A4.62,4.62,0,0,0,888.37,166.14Z"/><rect class="cls-5" x="640.99" y="173.84" width="242.65" height="138.25"/><polygon class="cls-4" points="812.13 363.8 812.13 370.24 712.5 370.24 712.5 363.8 718.57 345.48 719.23 343.48 720.57 339.46 804.06 339.46 805.39 343.48 806.05 345.48 812.13 363.8"/><polygon class="cls-6" points="806.05 345.48 718.57 345.48 719.23 343.48 720.57 339.46 804.06 339.46 805.39 343.48 806.05 345.48"/><rect class="cls-7" x="672.47" y="215.55" width="13.3" height="3.13"/><rect class="cls-3" x="672.47" y="223.21" width="13.3" height="3.13"/><rect class="cls-8" x="681.12" y="230.86" width="27.78" height="3.13"/><rect class="cls-3" x="712.98" y="230.86" width="16.26" height="3.13"/><rect class="cls-3" x="681.12" y="236.66" width="31.87" height="3.13"/><rect class="cls-8" x="681.12" y="249.57" width="43.7" height="3.13"/><rect class="cls-8" x="681.12" y="255.78" width="21.85" height="3.13"/><rect class="cls-3" x="706.44" y="255.78" width="6.54" height="3.13"/><rect class="cls-3" x="717.84" y="255.78" width="6.54" height="3.13"/><rect class="cls-3" x="681.12" y="263.4" width="15.93" height="3.13"/><rect class="cls-8" x="699.49" y="243.31" width="13.89" height="3.13"/><rect class="cls-3" x="717.87" y="243.31" width="22.46" height="3.13"/><rect class="cls-3" x="672.47" y="269.15" width="13.3" height="3.13"/><rect class="cls-7" x="672.47" y="274.84" width="13.3" height="3.13"/><rect class="cls-7" x="793.69" y="215.55" width="13.3" height="3.13"/><rect class="cls-3" x="793.69" y="223.21" width="13.3" height="3.13"/><rect class="cls-8" x="802.34" y="230.86" width="27.78" height="3.13"/><rect class="cls-3" x="802.34" y="236.66" width="31.86" height="3.13"/><rect class="cls-3" x="802.34" y="249.57" width="43.7" height="3.13"/><rect class="cls-8" x="802.34" y="255.78" width="21.85" height="3.13"/><rect class="cls-3" x="829.75" y="255.78" width="17.75" height="3.13"/><rect class="cls-3" x="802.34" y="263.4" width="15.93" height="3.13"/><rect class="cls-8" x="820.72" y="243.31" width="13.89" height="3.13"/><rect class="cls-3" x="839.09" y="243.31" width="6.95" height="3.13"/><rect class="cls-3" x="793.69" y="269.15" width="13.3" height="3.13"/><rect class="cls-7" x="793.69" y="276.81" width="13.3" height="3.13"/><rect class="cls-9" x="654" y="215.14" width="3.95" height="3.95"/><rect class="cls-9" x="654" y="222.8" width="3.95" height="3.95"/><rect class="cls-9" x="654" y="230.46" width="3.95" height="3.95"/><rect class="cls-9" x="654" y="238.11" width="3.95" height="3.95"/><rect class="cls-9" x="654" y="245.77" width="3.95" height="3.95"/><rect class="cls-9" x="654" y="253.43" width="3.95" height="3.95"/><rect class="cls-9" x="654" y="261.09" width="3.95" height="3.95"/><rect class="cls-9" x="654" y="268.74" width="3.95" height="3.95"/><rect class="cls-9" x="654" y="276.4" width="3.95" height="3.95"/><rect class="cls-9" x="775.22" y="215.14" width="3.95" height="3.95"/><rect class="cls-9" x="775.22" y="222.8" width="3.95" height="3.95"/><rect class="cls-9" x="775.22" y="230.46" width="3.95" height="3.95"/><rect class="cls-9" x="775.22" y="238.11" width="3.95" height="3.95"/><rect class="cls-9" x="775.22" y="245.77" width="3.95" height="3.95"/><rect class="cls-9" x="775.22" y="253.43" width="3.95" height="3.95"/><rect class="cls-9" x="775.22" y="261.09" width="3.95" height="3.95"/><rect class="cls-9" x="775.22" y="268.74" width="3.95" height="3.95"/><rect class="cls-9" x="775.22" y="276.4" width="3.95" height="3.95"/><rect class="cls-10" x="640.99" y="173.84" width="242.65" height="11.02"/><rect class="cls-11" x="762.87" y="173.84" width="1.89" height="138.25"/><circle class="cls-8" cx="753.81" cy="179.35" r="3.63"/><circle class="cls-7" cx="744.25" cy="179.35" r="3.63"/><circle class="cls-9" cx="734.68" cy="179.35" r="3.63"/><circle class="cls-8" cx="876.1" cy="179.35" r="3.63"/><circle class="cls-7" cx="866.54" cy="179.35" r="3.63"/><circle class="cls-9" cx="856.97" cy="179.35" r="3.63"/><rect class="cls-5" x="649.77" y="175.72" width="36.07" height="10.43"/><rect class="cls-5" x="772.37" y="175.72" width="36.07" height="10.43"/><polygon class="cls-12" points="624.76 292.27 624.76 325.75 578.06 325.75 578.06 275.73 606.61 275.73 624.76 292.27"/><polygon class="cls-3" points="624.76 292.27 606.61 292.27 606.61 275.73 624.76 292.27"/><polygon class="cls-3" points="591.42 313.76 581.46 305.5 591.38 296.26 592.74 297.72 584.49 305.42 592.7 312.22 591.42 313.76"/><polygon class="cls-3" points="611.45 313.72 610.08 312.26 618.34 304.56 610.13 297.76 611.4 296.22 621.37 304.48 611.45 313.72"/></g></g></g></svg>